<svg width="516" height="268" viewBox="0 0 516 268" fill="none" xmlns="http://www.w3.org/2000/svg">
<g filter="url(#filter0_d)">
<path d="M405.835 133.185C405.835 124.286 381.228 115.853 343.502 110.623C352.208 93.2086 348.339 79.3538 331.29 74.918C327.36 73.8775 322.765 73.3847 317.747 73.3847V79.4907C320.528 79.4907 322.765 79.7371 324.639 80.2026C332.861 82.3383 336.429 90.4705 333.647 100.93C332.982 103.504 331.894 106.215 330.564 108.98C318.714 107.666 305.776 106.653 292.173 105.996C284.011 100.93 275.547 96.3301 267.022 92.3051C286.732 84.0086 305.232 79.4633 317.807 79.4633V73.3573C301.181 73.3573 279.416 78.724 257.409 88.0336C235.402 78.7788 213.637 73.4668 197.011 73.4668V79.5728C209.526 79.5728 228.087 84.0907 247.796 92.3324C239.332 96.3575 230.868 100.93 222.827 105.996C209.163 106.653 196.225 107.666 184.375 109.008C182.985 106.269 181.957 103.613 181.232 101.067C178.39 90.6074 181.897 82.4752 190.059 80.3121C191.872 79.8193 194.23 79.6002 197.011 79.6002V73.4942C191.933 73.4942 187.338 73.9871 183.348 75.0275C166.359 79.4633 162.55 93.2908 171.316 110.65C133.711 115.908 109.226 124.314 109.226 133.185C109.226 142.084 133.832 150.517 171.558 155.747C162.852 173.162 166.722 187.016 183.771 191.452C187.701 192.493 192.296 192.986 197.374 192.986C214 192.986 235.765 187.619 257.772 178.309C279.779 187.564 301.544 192.876 318.17 192.876C323.249 192.876 327.843 192.383 331.834 191.343C348.823 186.907 352.631 173.079 343.865 155.72C381.349 150.49 405.835 142.057 405.835 133.185V133.185ZM327.118 114.922C324.881 118.454 322.1 122.096 318.956 125.737C316.477 123.547 313.878 121.356 311.036 119.166C308.255 116.975 305.292 114.84 302.33 112.759C310.915 113.334 319.198 114.046 327.118 114.922ZM299.428 144.083C294.712 147.779 289.875 151.284 284.857 154.542C275.849 154.898 266.72 155.09 257.53 155.09C248.401 155.09 239.272 154.898 230.324 154.57C225.306 151.311 220.409 147.834 215.693 144.165C211.098 140.578 206.926 136.936 203.118 133.267C206.866 129.598 211.098 125.929 215.632 122.342C220.348 118.646 225.185 115.141 230.203 111.883C239.211 111.527 248.341 111.335 257.53 111.335C266.659 111.335 275.789 111.527 284.737 111.855C289.755 115.114 294.652 118.591 299.367 122.26C303.962 125.847 308.134 129.489 311.943 133.158C308.134 136.827 303.962 140.496 299.428 144.083ZM318.956 140.523C322.221 144.192 325.002 147.861 327.299 151.421C319.379 152.297 311.036 153.036 302.39 153.611C305.353 151.503 308.315 149.34 311.096 147.122C313.878 144.932 316.477 142.714 318.956 140.523ZM257.651 169.739C252.028 167.11 246.406 164.181 240.844 160.977C246.285 161.087 251.847 161.169 257.47 161.169C263.153 161.169 268.775 161.114 274.277 160.977C268.836 164.181 263.213 167.11 257.651 169.739ZM212.67 153.611C204.085 153.036 195.802 152.325 187.882 151.448C190.119 147.916 192.9 144.274 196.044 140.633C198.523 142.823 201.122 145.014 203.964 147.204C206.806 149.395 209.708 151.53 212.67 153.611ZM257.349 96.6313C262.971 99.2599 268.594 102.19 274.156 105.393C268.715 105.284 263.153 105.202 257.53 105.202C251.847 105.202 246.224 105.256 240.723 105.393C246.164 102.19 251.787 99.2599 257.349 96.6313ZM212.61 112.759C209.647 114.867 206.685 117.03 203.904 119.248C201.122 121.439 198.523 123.629 196.044 125.82C192.779 122.151 189.998 118.481 187.701 114.922C195.621 114.073 203.964 113.334 212.61 112.759ZM157.895 147.04C136.492 142.905 122.647 137.484 122.647 133.185C122.647 128.886 136.492 123.437 157.895 119.33C163.094 118.317 168.777 117.414 174.642 116.565C178.088 121.931 182.622 127.517 188.245 133.24C182.683 138.935 178.209 144.494 174.823 149.833C168.838 148.984 163.155 148.053 157.895 147.04ZM190.421 186.168C182.199 184.032 178.632 175.9 181.413 165.44C182.078 162.866 183.166 160.156 184.496 157.39C196.346 158.704 209.284 159.717 222.888 160.375C231.049 165.44 239.514 170.04 248.038 174.065C228.329 182.362 209.828 186.907 197.253 186.907C194.532 186.88 192.235 186.633 190.421 186.168V186.168ZM333.829 165.303C336.67 175.763 333.164 183.895 325.002 186.058C323.188 186.551 320.83 186.77 318.049 186.77C305.534 186.77 286.974 182.252 267.264 174.01C275.728 169.985 284.192 165.413 292.233 160.347C305.897 159.69 318.835 158.677 330.685 157.335C332.076 160.101 333.164 162.757 333.829 165.303V165.303ZM357.105 147.04C351.906 148.053 346.223 148.957 340.358 149.805C336.912 144.439 332.378 138.853 326.755 133.13C332.317 127.435 336.791 121.877 340.177 116.537C346.162 117.386 351.845 118.317 357.166 119.33C378.568 123.465 392.413 128.886 392.413 133.185C392.353 137.484 378.508 142.933 357.105 147.04V147.04Z" fill="#FBF561"/>
<path d="M257.47 145.698C272.729 145.698 285.099 140.096 285.099 133.185C285.099 126.274 272.729 120.672 257.47 120.672C242.21 120.672 229.84 126.274 229.84 133.185C229.84 140.096 242.21 145.698 257.47 145.698Z" fill="#FBF561"/>
<path d="M112.477 244.195H104.461V258H99.9375V223.875H111.234C115.078 223.875 118.031 224.75 120.094 226.5C122.172 228.25 123.211 230.797 123.211 234.141C123.211 236.266 122.633 238.117 121.477 239.695C120.336 241.273 118.742 242.453 116.695 243.234L124.711 257.719V258H119.883L112.477 244.195ZM104.461 240.516H111.375C113.609 240.516 115.383 239.938 116.695 238.781C118.023 237.625 118.688 236.078 118.688 234.141C118.688 232.031 118.055 230.414 116.789 229.289C115.539 228.164 113.727 227.594 111.352 227.578H104.461V240.516ZM148.828 242.227H134.039V254.32H151.219V258H129.539V223.875H150.984V227.578H134.039V238.547H148.828V242.227ZM175.664 249.094H161.367L158.156 258H153.516L166.547 223.875H170.484L183.539 258H178.922L175.664 249.094ZM162.727 245.391H174.328L168.516 229.43L162.727 245.391ZM212.953 247.172C212.531 250.781 211.195 253.57 208.945 255.539C206.711 257.492 203.734 258.469 200.016 258.469C195.984 258.469 192.75 257.023 190.312 254.133C187.891 251.242 186.68 247.375 186.68 242.531V239.25C186.68 236.078 187.242 233.289 188.367 230.883C189.508 228.477 191.117 226.633 193.195 225.352C195.273 224.055 197.68 223.406 200.414 223.406C204.039 223.406 206.945 224.422 209.133 226.453C211.32 228.469 212.594 231.266 212.953 234.844H208.43C208.039 232.125 207.188 230.156 205.875 228.938C204.578 227.719 202.758 227.109 200.414 227.109C197.539 227.109 195.281 228.172 193.641 230.297C192.016 232.422 191.203 235.445 191.203 239.367V242.672C191.203 246.375 191.977 249.32 193.523 251.508C195.07 253.695 197.234 254.789 200.016 254.789C202.516 254.789 204.43 254.227 205.758 253.102C207.102 251.961 207.992 249.984 208.43 247.172H212.953ZM241.992 227.578H231.023V258H226.547V227.578H215.602V223.875H241.992V227.578ZM249.961 245.273H238.523V241.734H249.961V245.273ZM258.914 258H254.578V232.641H258.914V258ZM254.227 225.914C254.227 225.211 254.438 224.617 254.859 224.133C255.297 223.648 255.938 223.406 256.781 223.406C257.625 223.406 258.266 223.648 258.703 224.133C259.141 224.617 259.359 225.211 259.359 225.914C259.359 226.617 259.141 227.203 258.703 227.672C258.266 228.141 257.625 228.375 256.781 228.375C255.938 228.375 255.297 228.141 254.859 227.672C254.438 227.203 254.227 226.617 254.227 225.914ZM269.977 232.641L270.117 235.828C272.055 233.391 274.586 232.172 277.711 232.172C283.07 232.172 285.773 235.195 285.82 241.242V258H281.484V241.219C281.469 239.391 281.047 238.039 280.219 237.164C279.406 236.289 278.133 235.852 276.398 235.852C274.992 235.852 273.758 236.227 272.695 236.977C271.633 237.727 270.805 238.711 270.211 239.93V258H265.875V232.641H269.977ZM319.031 251.273C319.031 250.102 318.586 249.195 317.695 248.555C316.82 247.898 315.281 247.336 313.078 246.867C310.891 246.398 309.148 245.836 307.852 245.18C306.57 244.523 305.617 243.742 304.992 242.836C304.383 241.93 304.078 240.852 304.078 239.602C304.078 237.523 304.953 235.766 306.703 234.328C308.469 232.891 310.719 232.172 313.453 232.172C316.328 232.172 318.656 232.914 320.438 234.398C322.234 235.883 323.133 237.781 323.133 240.094H318.773C318.773 238.906 318.266 237.883 317.25 237.023C316.25 236.164 314.984 235.734 313.453 235.734C311.875 235.734 310.641 236.078 309.75 236.766C308.859 237.453 308.414 238.352 308.414 239.461C308.414 240.508 308.828 241.297 309.656 241.828C310.484 242.359 311.977 242.867 314.133 243.352C316.305 243.836 318.062 244.414 319.406 245.086C320.75 245.758 321.742 246.57 322.383 247.523C323.039 248.461 323.367 249.609 323.367 250.969C323.367 253.234 322.461 255.055 320.648 256.43C318.836 257.789 316.484 258.469 313.594 258.469C311.562 258.469 309.766 258.109 308.203 257.391C306.641 256.672 305.414 255.672 304.523 254.391C303.648 253.094 303.211 251.695 303.211 250.195H307.547C307.625 251.648 308.203 252.805 309.281 253.664C310.375 254.508 311.812 254.93 313.594 254.93C315.234 254.93 316.547 254.602 317.531 253.945C318.531 253.273 319.031 252.383 319.031 251.273ZM327.867 245.086C327.867 242.602 328.352 240.367 329.32 238.383C330.305 236.398 331.664 234.867 333.398 233.789C335.148 232.711 337.141 232.172 339.375 232.172C342.828 232.172 345.617 233.367 347.742 235.758C349.883 238.148 350.953 241.328 350.953 245.297V245.602C350.953 248.07 350.477 250.289 349.523 252.258C348.586 254.211 347.234 255.734 345.469 256.828C343.719 257.922 341.703 258.469 339.422 258.469C335.984 258.469 333.195 257.273 331.055 254.883C328.93 252.492 327.867 249.328 327.867 245.391V245.086ZM332.227 245.602C332.227 248.414 332.875 250.672 334.172 252.375C335.484 254.078 337.234 254.93 339.422 254.93C341.625 254.93 343.375 254.07 344.672 252.352C345.969 250.617 346.617 248.195 346.617 245.086C346.617 242.305 345.953 240.055 344.625 238.336C343.312 236.602 341.562 235.734 339.375 235.734C337.234 235.734 335.508 236.586 334.195 238.289C332.883 239.992 332.227 242.43 332.227 245.602ZM366.562 254.93C368.109 254.93 369.461 254.461 370.617 253.523C371.773 252.586 372.414 251.414 372.539 250.008H376.641C376.562 251.461 376.062 252.844 375.141 254.156C374.219 255.469 372.984 256.516 371.438 257.297C369.906 258.078 368.281 258.469 366.562 258.469C363.109 258.469 360.359 257.32 358.312 255.023C356.281 252.711 355.266 249.555 355.266 245.555V244.828C355.266 242.359 355.719 240.164 356.625 238.242C357.531 236.32 358.828 234.828 360.516 233.766C362.219 232.703 364.227 232.172 366.539 232.172C369.383 232.172 371.742 233.023 373.617 234.727C375.508 236.43 376.516 238.641 376.641 241.359H372.539C372.414 239.719 371.789 238.375 370.664 237.328C369.555 236.266 368.18 235.734 366.539 235.734C364.336 235.734 362.625 236.531 361.406 238.125C360.203 239.703 359.602 241.992 359.602 244.992V245.812C359.602 248.734 360.203 250.984 361.406 252.562C362.609 254.141 364.328 254.93 366.562 254.93ZM386.227 258H381.891V232.641H386.227V258ZM381.539 225.914C381.539 225.211 381.75 224.617 382.172 224.133C382.609 223.648 383.25 223.406 384.094 223.406C384.938 223.406 385.578 223.648 386.016 224.133C386.453 224.617 386.672 225.211 386.672 225.914C386.672 226.617 386.453 227.203 386.016 227.672C385.578 228.141 384.938 228.375 384.094 228.375C383.25 228.375 382.609 228.141 382.172 227.672C381.75 227.203 381.539 226.617 381.539 225.914ZM408.844 258C408.594 257.5 408.391 256.609 408.234 255.328C406.219 257.422 403.812 258.469 401.016 258.469C398.516 258.469 396.461 257.766 394.852 256.359C393.258 254.938 392.461 253.141 392.461 250.969C392.461 248.328 393.461 246.281 395.461 244.828C397.477 243.359 400.305 242.625 403.945 242.625H408.164V240.633C408.164 239.117 407.711 237.914 406.805 237.023C405.898 236.117 404.562 235.664 402.797 235.664C401.25 235.664 399.953 236.055 398.906 236.836C397.859 237.617 397.336 238.562 397.336 239.672H392.977C392.977 238.406 393.422 237.188 394.312 236.016C395.219 234.828 396.438 233.891 397.969 233.203C399.516 232.516 401.211 232.172 403.055 232.172C405.977 232.172 408.266 232.906 409.922 234.375C411.578 235.828 412.438 237.836 412.5 240.398V252.07C412.5 254.398 412.797 256.25 413.391 257.625V258H408.844ZM401.648 254.695C403.008 254.695 404.297 254.344 405.516 253.641C406.734 252.938 407.617 252.023 408.164 250.898V245.695H404.766C399.453 245.695 396.797 247.25 396.797 250.359C396.797 251.719 397.25 252.781 398.156 253.547C399.062 254.312 400.227 254.695 401.648 254.695ZM424.008 258H419.672V222H424.008V258Z" fill="#FBF561"/>
</g>
<defs>
<filter id="filter0_d" x="-4" y="0" width="524" height="276" filterUnits="userSpaceOnUse" color-interpolation-filters="sRGB">
<feFlood flood-opacity="0" result="BackgroundImageFix"/>
<feColorMatrix in="SourceAlpha" type="matrix" values="0 0 0 0 0 0 0 0 0 0 0 0 0 0 0 0 0 0 127 0"/>
<feOffset dy="4"/>
<feGaussianBlur stdDeviation="2"/>
<feColorMatrix type="matrix" values="0 0 0 0 0 0 0 0 0 0 0 0 0 0 0 0 0 0 0.25 0"/>
<feBlend mode="normal" in2="BackgroundImageFix" result="effect1_dropShadow"/>
<feBlend mode="normal" in="SourceGraphic" in2="effect1_dropShadow" result="shape"/>
</filter>
</defs>
</svg>
